<svg width="24" height="24" fill="none" xmlns="http://www.w3.org/2000/svg"><path d="M12 0c6.627 0 12 5.373 12 12s-5.373 12-12 12S0 18.627 0 12C0 5.439 5.266.108 11.802.002L12 0Zm0 17.25c-.854 0-1.691.102-2.499.3l.051.253C10.163 20.73 11.192 22.5 12 22.5c.93 0 1.916-1.978 2.494-4.951A10.488 10.488 0 0 0 12 17.25Zm10.474-4.5h-5.982c-.082 3.998-.825 7.467-2.027 9.459 4.326-1.04 7.608-4.76 7.997-9.304l.012-.155Zm-14.41 5.263-.075.03a10.48 10.48 0 0 0-2.934 1.832 10.469 10.469 0 0 0 4.464 2.33c-.613-1.031-1.104-2.465-1.455-4.192Zm6.927-5.263H1.526a10.454 10.454 0 0 0 2.476 6.054A11.955 11.955 0 0 1 12 15.75c.93 0 1.847.106 2.736.314.138-1.031.228-2.146.255-3.314ZM9.535 1.791l-.058.014C5.13 2.877 1.85 6.655 1.527 11.25h5.98c.083-3.998.826-7.467 2.028-9.459Zm10.463 3.406-.135.118A11.955 11.955 0 0 1 12 8.25c-.93 0-1.847-.106-2.736-.314a30.523 30.523 0 0 0-.255 3.314h13.465a10.451 10.451 0 0 0-2.353-5.906l-.123-.147ZM12 1.5c-.93 0-1.916 1.978-2.494 4.952A10.5 10.5 0 0 0 12 6.75c.854 0 1.691-.102 2.499-.3l-.057-.278C13.831 3.259 12.805 1.5 12 1.5Zm2.481.295.054.093c.588 1.023 1.06 2.423 1.401 4.1a10.472 10.472 0 0 0 3.01-1.863 10.475 10.475 0 0 0-4.465-2.33Z" fill="#021412"/></svg>