<svg width="139" height="32" fill="none" xmlns="http://www.w3.org/2000/svg"><path d="M2.673 5.334h2.673c5.889 0 10.661 4.776 10.661 10.666 0 5.831-4.677 10.571-10.485 10.666l-.176.001V24c4.41 0 7.988-3.58 7.988-8 0-4.375-3.506-7.928-7.857-8H0V0h5.346c8.858 0 16.039 7.163 16.039 16 0 8.748-7.038 15.857-15.773 15.998L5.346 32H0V18.666h5.346A2.67 2.67 0 0 0 8.02 16a2.67 2.67 0 0 0-2.598-2.666H0v-2.667h5.346A5.342 5.342 0 0 1 10.692 16a5.342 5.342 0 0 1-5.254 5.333H2.673v8h2.673c7.294-.001 13.24-5.836 13.363-13.112L18.71 16C18.709 8.723 12.86 2.791 5.566 2.669l-.221-.002H2.673v2.667Zm34.75 4a5.343 5.343 0 0 1 5.347 5.333A5.342 5.342 0 0 1 37.516 20H34.75v2.667h-2.674v-5.333h.004l-.004-3.279.008-4.722h5.338Zm0 2.666h-2.67l-.002 3.214.002 2.119h2.67a2.67 2.67 0 0 0 2.67-2.518l.002-.074.001-.075a2.67 2.67 0 0 0-2.598-2.665L37.423 12Zm27.533-2.666a5.342 5.342 0 0 1 5.346 5.333 5.325 5.325 0 0 1-2.375 4.435l1.441 3.565h-2.889l-1.081-2.685-.294.016-.148.002h-2.673v2.666H59.61v-5.333h.004l-.003-3.278.008-4.722h5.337Zm0 2.666h-2.67l-.003 3.214.002 2.119h2.67a2.67 2.67 0 0 0 2.67-2.518l.003-.074v-.075a2.67 2.67 0 0 0-2.598-2.665L64.956 12Zm-8.821 10.667h-2.673v-2.67L50.175 20l-2.06-.003v2.67h-2.672v-8a5.342 5.342 0 0 1 5.346-5.333 5.343 5.343 0 0 1 5.346 5.241v8.092ZM50.788 12a2.67 2.67 0 0 0-2.672 2.592v2.738l3.22.003 2.125-.003v-2.664a2.669 2.669 0 0 0-2.524-2.662l-.074-.003-.075-.001Zm49.452 10.667V9.334h8.02V12h-5.347v2.666h2.673v2.667h-2.673V20h5.347v2.666l-8.02.001Zm17.376-13.333a5.342 5.342 0 0 1 5.346 5.333 5.325 5.325 0 0 1-2.375 4.435l1.441 3.565h-2.888l-1.082-2.685-.293.016-.149.003h-2.672v2.666h-2.675v-5.333h.004l-.004-3.279.008-4.722h5.339Zm0 2.666h-2.671l-.002 3.214.002 2.119h2.671a2.67 2.67 0 0 0 2.668-2.518l.004-.074v-.075a2.669 2.669 0 0 0-2.598-2.665l-.074-.001Zm14.701-2.666c-3.69 0-6.682 2.984-6.682 6.666 0 3.682 2.992 6.666 6.682 6.666 3.691 0 6.683-2.984 6.683-6.666 0-3.682-2.992-6.666-6.683-6.666Zm0 2.666c2.215 0 4.01 1.79 4.01 4s-1.795 4-4.01 4a4.005 4.005 0 0 1-4.009-4c0-2.21 1.795-4 4.009-4Zm-49.49-2.666V12h-3.982v10.666h-2.673V12H72.19V9.334h10.638Zm5.64-.001h.001v.002l5.614 8.487V9.334h2.672v13.333h-2.672v-.009l-5.614-8.493v8.502h-2.673V9.334h2.67l.002-.001Z" fill="#082925"/></svg>