<svg width="16" height="19" fill="none" xmlns="http://www.w3.org/2000/svg"><path d="m14.736 12.667 1.002.6a.418.418 0 0 1 0 .716l-7.309 4.385a.833.833 0 0 1-.858 0L.262 13.983a.417.417 0 0 1 0-.715l1.002-.601L8 16.708l6.736-4.041Zm0-3.917 1.002.6a.417.417 0 0 1 0 .716L8 14.708.262 10.066a.417.417 0 0 1 0-.715l1.002-.6L8 12.79l6.736-4.04ZM8.428 1.09l7.31 4.386a.417.417 0 0 1 0 .715L8 10.833.262 6.191a.417.417 0 0 1 0-.715L7.571 1.09a.833.833 0 0 1 .858 0ZM8 2.778 2.906 5.833 8 8.89l5.094-3.057L8 2.777Z" fill="#000"/></svg>